<?xml version="1.0" encoding="UTF-8" standalone="no"?>
<!DOCTYPE svg PUBLIC "-//W3C//DTD SVG 1.1//EN"
 "http://www.w3.org/Graphics/SVG/1.1/DTD/svg11.dtd">
<!-- Generated by graphviz version 2.43.0 (0)
 -->
<!-- Title: linked_list Pages: 1 -->
<svg width="791pt" height="45pt"
 viewBox="0.00 0.00 791.39 45.00" xmlns="http://www.w3.org/2000/svg" xmlns:xlink="http://www.w3.org/1999/xlink">
<g id="graph0" class="graph" transform="scale(1 1) rotate(0) translate(4 41)">
<title>linked_list</title>
<polygon fill="white" stroke="transparent" points="-4,4 -4,-41 787.39,-41 787.39,4 -4,4"/>
<!-- 130382327144960 -->
<g id="node1" class="node">
<title>130382327144960</title>
<polygon fill="none" stroke="black" points="0,-0.5 0,-36.5 54,-36.5 54,-0.5 0,-0.5"/>
<text text-anchor="middle" x="27" y="-14.8" font-family="Times,serif" font-size="14.00">0</text>
</g>
<!-- 130382327145920 -->
<g id="node7" class="node">
<title>130382327145920</title>
<polygon fill="none" stroke="black" points="90,-0.5 90,-36.5 144,-36.5 144,-0.5 90,-0.5"/>
<text text-anchor="middle" x="117" y="-14.8" font-family="Times,serif" font-size="14.00">10</text>
</g>
<!-- 130382327144960&#45;&gt;130382327145920 -->
<g id="edge1" class="edge">
<title>130382327144960&#45;&gt;130382327145920</title>
<path fill="none" stroke="black" d="M54.4,-18.5C62.39,-18.5 71.31,-18.5 79.82,-18.5"/>
<polygon fill="black" stroke="black" points="79.92,-22 89.92,-18.5 79.92,-15 79.92,-22"/>
</g>
<!-- 130382327145008 -->
<g id="node2" class="node">
<title>130382327145008</title>
<polygon fill="none" stroke="black" points="180,-0.5 180,-36.5 234,-36.5 234,-0.5 180,-0.5"/>
<text text-anchor="middle" x="207" y="-14.8" font-family="Times,serif" font-size="14.00">20</text>
</g>
<!-- 130382327142224 -->
<g id="node4" class="node">
<title>130382327142224</title>
<polygon fill="none" stroke="black" points="270,-0.5 270,-36.5 324,-36.5 324,-0.5 270,-0.5"/>
<text text-anchor="middle" x="297" y="-14.8" font-family="Times,serif" font-size="14.00">25</text>
</g>
<!-- 130382327145008&#45;&gt;130382327142224 -->
<g id="edge2" class="edge">
<title>130382327145008&#45;&gt;130382327142224</title>
<path fill="none" stroke="black" d="M234.4,-18.5C242.39,-18.5 251.31,-18.5 259.82,-18.5"/>
<polygon fill="black" stroke="black" points="259.92,-22 269.92,-18.5 259.92,-15 259.92,-22"/>
</g>
<!-- 130382327143088 -->
<g id="node3" class="node">
<title>130382327143088</title>
<polygon fill="none" stroke="black" points="360,-0.5 360,-36.5 414,-36.5 414,-0.5 360,-0.5"/>
<text text-anchor="middle" x="387" y="-14.8" font-family="Times,serif" font-size="14.00">30</text>
</g>
<!-- 130382327145824 -->
<g id="node5" class="node">
<title>130382327145824</title>
<polygon fill="none" stroke="black" points="450,-0.5 450,-36.5 504,-36.5 504,-0.5 450,-0.5"/>
<text text-anchor="middle" x="477" y="-14.8" font-family="Times,serif" font-size="14.00">40</text>
</g>
<!-- 130382327143088&#45;&gt;130382327145824 -->
<g id="edge4" class="edge">
<title>130382327143088&#45;&gt;130382327145824</title>
<path fill="none" stroke="black" d="M414.4,-18.5C422.39,-18.5 431.31,-18.5 439.82,-18.5"/>
<polygon fill="black" stroke="black" points="439.92,-22 449.92,-18.5 439.92,-15 439.92,-22"/>
</g>
<!-- 130382327142224&#45;&gt;130382327143088 -->
<g id="edge7" class="edge">
<title>130382327142224&#45;&gt;130382327143088</title>
<path fill="none" stroke="black" d="M324.4,-18.5C332.39,-18.5 341.31,-18.5 349.82,-18.5"/>
<polygon fill="black" stroke="black" points="349.92,-22 359.92,-18.5 349.92,-15 349.92,-22"/>
</g>
<!-- 130382327142272 -->
<g id="node6" class="node">
<title>130382327142272</title>
<polygon fill="none" stroke="black" points="540,-0.5 540,-36.5 594,-36.5 594,-0.5 540,-0.5"/>
<text text-anchor="middle" x="567" y="-14.8" font-family="Times,serif" font-size="14.00">50</text>
</g>
<!-- 130382327145824&#45;&gt;130382327142272 -->
<g id="edge6" class="edge">
<title>130382327145824&#45;&gt;130382327142272</title>
<path fill="none" stroke="black" d="M504.4,-18.5C512.39,-18.5 521.31,-18.5 529.82,-18.5"/>
<polygon fill="black" stroke="black" points="529.92,-22 539.92,-18.5 529.92,-15 529.92,-22"/>
</g>
<!-- 108670708151264 -->
<g id="node8" class="node">
<title>108670708151264</title>
<ellipse fill="none" stroke="black" cx="706.69" cy="-18.5" rx="76.89" ry="18"/>
<text text-anchor="middle" x="706.69" y="-14.8" font-family="Times,serif" font-size="14.00">108670708151264</text>
</g>
<!-- 130382327142272&#45;&gt;108670708151264 -->
<g id="edge3" class="edge">
<title>130382327142272&#45;&gt;108670708151264</title>
<path fill="none" stroke="black" d="M594.22,-18.5C601.84,-18.5 610.61,-18.5 619.82,-18.5"/>
<polygon fill="black" stroke="black" points="619.94,-22 629.94,-18.5 619.94,-15 619.94,-22"/>
</g>
<!-- 130382327145920&#45;&gt;130382327145008 -->
<g id="edge5" class="edge">
<title>130382327145920&#45;&gt;130382327145008</title>
<path fill="none" stroke="black" d="M144.4,-18.5C152.39,-18.5 161.31,-18.5 169.82,-18.5"/>
<polygon fill="black" stroke="black" points="169.92,-22 179.92,-18.5 169.92,-15 169.92,-22"/>
</g>
</g>
</svg>
